<?xml version="1.0" standalone="no"?>
<!DOCTYPE svg PUBLIC "-//W3C//DTD SVG 20010904//EN"
 "http://www.w3.org/TR/2001/REC-SVG-20010904/DTD/svg10.dtd">
<svg version="1.0" xmlns="http://www.w3.org/2000/svg"
 width="512.000000pt" height="512.000000pt" viewBox="0 0 512.000000 512.000000"
 preserveAspectRatio="xMidYMid meet">

<g transform="translate(0.000000,512.000000) scale(0.100000,-0.100000)"
fill="#000000" stroke="none">
<path d="M2335 4786 c-37 -17 -70 -52 -84 -89 -7 -19 -11 -187 -11 -490 l0
-461 -122 121 c-132 130 -156 143 -235 128 -49 -9 -109 -69 -118 -118 -17 -88
-16 -90 283 -389 239 -239 282 -278 314 -283 90 -17 91 -16 390 283 299 299
300 301 283 389 -9 49 -69 109 -118 118 -79 15 -103 2 -234 -128 l-122 -120
-3 476 c-3 462 -4 476 -24 503 -11 15 -32 37 -46 47 -34 25 -113 32 -153 13z"/>
<path d="M1001 3504 c-170 -46 -302 -180 -346 -351 -23 -87 -22 -2380 0 -2468
45 -172 179 -305 352 -350 86 -23 3020 -23 3106 0 173 45 307 178 352 350 13
51 15 179 15 915 0 930 1 909 -56 1023 -35 68 -145 175 -212 206 l-52 24 0
122 c0 188 -35 289 -138 397 -62 65 -159 120 -246 138 -34 7 -135 10 -265 8
-230 -3 -235 -5 -285 -72 -29 -39 -29 -133 0 -172 50 -67 55 -69 294 -74 201
-5 221 -7 246 -26 60 -44 69 -67 72 -185 l4 -109 -1390 2 c-1387 3 -1391 3
-1418 24 -53 39 -69 71 -69 134 0 63 16 95 69 134 25 19 45 21 246 26 239 5
244 7 294 74 29 39 29 133 0 172 -50 68 -54 69 -297 71 -170 2 -235 -1 -276
-13z m1541 -944 c1512 -5 1517 -5 1544 -26 66 -49 69 -58 72 -265 l3 -189
-268 0 c-206 0 -282 -3 -326 -15 -258 -67 -417 -329 -352 -580 45 -172 179
-305 352 -350 44 -12 120 -15 326 -15 l268 0 -3 -189 c-3 -207 -6 -216 -72
-265 -27 -21 -28 -21 -1526 -21 -1498 0 -1499 0 -1526 21 -15 11 -37 33 -48
48 -21 27 -21 36 -24 951 l-2 924 32 -12 c25 -9 425 -13 1550 -17z m1618 -960
l0 -160 -255 0 c-281 0 -301 3 -348 59 -48 57 -48 145 0 202 47 55 63 58 346
59 l257 0 0 -160z"/>
</g>
</svg>
