<?xml version="1.0" standalone="no"?>
<!DOCTYPE svg PUBLIC "-//W3C//DTD SVG 20010904//EN"
 "http://www.w3.org/TR/2001/REC-SVG-20010904/DTD/svg10.dtd">
<svg version="1.0" xmlns="http://www.w3.org/2000/svg"
 width="512.000000pt" height="512.000000pt" viewBox="0 0 512.000000 512.000000"
 preserveAspectRatio="xMidYMid meet">

<g transform="translate(0.000000,512.000000) scale(0.100000,-0.100000)"
fill="#000000" stroke="none">
<path d="M2710 5104 c-60 -16 -124 -50 -173 -93 -73 -63 -112 -66 -188 -14
-97 67 -207 51 -267 -39 -46 -70 -40 -104 81 -447 l108 -305 -403 -405 c-275
-276 -422 -433 -462 -489 -125 -176 -221 -382 -271 -581 -79 -309 -72 -660 19
-947 27 -85 33 -75 -70 -113 l-61 -22 -34 32 c-19 18 -54 42 -79 53 -42 20
-65 21 -356 24 -296 3 -313 2 -367 -18 -74 -28 -139 -92 -166 -165 -20 -54
-21 -73 -21 -695 0 -622 1 -641 21 -695 27 -73 92 -137 165 -165 l56 -21 1442
4 c1436 3 1441 3 1541 25 322 70 560 197 811 434 339 318 998 968 1024 1008
119 187 47 447 -151 544 -101 49 -237 53 -321 10 l-28 -15 7 73 c14 126 7 395
-11 498 -30 171 -66 281 -103 319 -30 30 -38 33 -71 28 -24 -4 -47 -17 -65
-38 -34 -37 -33 -46 7 -189 65 -234 72 -484 21 -735 -35 -169 -8 -136 -425
-507 -438 -388 -471 -417 -527 -452 -24 -14 -44 -26 -45 -26 -2 0 -2 34 0 76
6 128 -49 247 -147 318 -42 31 -607 306 -815 398 -290 127 -603 139 -924 36
-52 -16 -95 -28 -97 -26 -12 12 -57 196 -71 290 -13 86 -15 152 -11 278 9 248
54 427 164 642 100 197 146 252 582 691 l405 407 395 0 396 0 310 -310 c298
-297 312 -310 349 -310 48 0 72 13 92 52 32 62 25 71 -292 389 l-296 297 106
306 c75 218 106 320 106 353 0 97 -80 173 -182 173 -37 0 -58 -8 -106 -40 -80
-54 -114 -54 -178 1 -126 105 -279 142 -424 103z m200 -199 c24 -8 70 -38 104
-65 33 -27 81 -56 105 -65 61 -21 150 -19 211 4 27 11 50 18 50 17 0 -6 -170
-489 -175 -497 -4 -5 -158 -9 -379 -9 l-373 0 -86 248 c-48 136 -87 251 -87
255 0 4 15 0 33 -10 24 -13 55 -18 122 -18 100 0 142 16 213 79 82 73 170 93
262 61z m1910 -3070 c61 -31 100 -98 100 -171 0 -71 -2 -73 -987 -1025 -242
-234 -434 -341 -743 -415 -69 -16 -159 -18 -1099 -21 l-1024 -4 7 23 c3 13 6
296 6 629 l0 606 249 91 c301 110 372 126 546 127 143 0 228 -14 350 -55 112
-39 834 -386 869 -418 72 -68 76 -183 8 -255 -71 -76 -120 -75 -367 4 -761
243 -786 250 -821 239 -44 -15 -64 -45 -64 -95 0 -31 6 -47 25 -65 18 -17 164
-67 522 -181 492 -157 499 -159 589 -159 197 0 400 65 561 179 28 20 246 209
484 421 629 559 615 547 657 558 42 11 94 6 132 -13z m-3969 -304 l29 -29 0
-622 0 -622 -29 -29 -29 -29 -282 0 -282 0 -29 29 -29 29 0 622 0 622 29 29
29 29 282 0 282 0 29 -29z"/>
<path d="M4138 3314 c-34 -18 -48 -43 -48 -84 0 -42 15 -67 50 -85 43 -22 76
-18 112 14 27 24 33 36 33 71 0 35 -6 47 -33 71 -36 32 -72 36 -114 13z"/>
<path d="M2781 3236 c-26 -15 -50 -51 -51 -78 0 -11 -19 -27 -50 -43 -73 -37
-115 -79 -150 -147 -96 -193 43 -415 273 -435 71 -7 107 -22 136 -59 72 -91
-59 -203 -174 -148 -41 19 -60 47 -68 99 -7 47 -54 95 -93 95 -33 0 -81 -25
-94 -49 -20 -39 -12 -115 20 -179 35 -68 77 -110 150 -147 28 -14 50 -32 50
-40 0 -49 51 -95 106 -95 33 0 94 59 94 92 0 18 10 27 48 43 102 42 182 162
182 275 0 112 -76 227 -185 276 -30 14 -87 29 -129 33 -42 5 -84 15 -94 22
-58 44 -69 107 -27 153 80 87 235 41 235 -70 0 -35 59 -94 94 -94 39 0 76 21
92 51 49 96 -42 273 -168 324 -38 16 -48 25 -48 44 0 13 -15 38 -34 57 -37 37
-73 43 -115 20z"/>
</g>
</svg>
