<?xml version="1.0" standalone="no"?>
<!DOCTYPE svg PUBLIC "-//W3C//DTD SVG 20010904//EN"
 "http://www.w3.org/TR/2001/REC-SVG-20010904/DTD/svg10.dtd">
<svg version="1.0" xmlns="http://www.w3.org/2000/svg"
 width="512.000000pt" height="512.000000pt" viewBox="0 0 512.000000 512.000000"
 preserveAspectRatio="xMidYMid meet">

<g transform="translate(0.000000,512.000000) scale(0.100000,-0.100000)"
fill="#000000" stroke="none">
<path d="M2430 4959 c-332 -34 -641 -206 -833 -464 -103 -138 -203 -373 -223
-525 l-7 -50 -472 0 c-279 0 -494 -4 -526 -10 -177 -34 -322 -177 -359 -354
-7 -35 -10 -488 -8 -1416 4 -1529 -3 -1402 77 -1565 96 -195 268 -335 488
-398 l78 -22 2088 -3 2087 -2 0 455 0 455 150 0 150 0 0 600 0 600 -150 0
-150 0 0 530 0 530 -155 0 -155 0 0 300 0 300 -379 0 -378 0 -7 50 c-19 141
-112 370 -203 499 -137 193 -337 345 -561 425 -158 56 -382 83 -552 65z m360
-318 c336 -91 587 -360 656 -701 21 -108 15 -289 -15 -405 -28 -107 -107 -265
-175 -347 -112 -135 -271 -235 -453 -285 -86 -24 -116 -27 -243 -27 -175 0
-264 20 -415 94 -176 85 -297 206 -386 385 -65 131 -90 230 -96 381 -12 259
77 486 261 670 132 132 289 214 481 253 81 16 298 6 385 -18z m-1410 -1111
c10 -47 27 -112 39 -145 11 -32 21 -61 21 -62 0 -2 -233 -3 -519 -3 l-518 0
-34 23 c-44 29 -74 100 -65 151 9 46 58 103 100 115 17 5 238 9 495 8 l464 -2
17 -85z m2828 -62 l3 -148 -266 0 c-146 0 -265 1 -265 3 0 1 11 34 24 72 12
39 29 99 35 135 7 36 15 71 17 78 3 10 53 12 226 10 l223 -3 3 -147z m-3235
-446 l638 -3 97 -98 c218 -222 480 -336 798 -348 363 -14 663 101 907 348 l97
99 503 -2 502 -3 3 -377 2 -378 -107 0 c-209 -1 -347 -52 -468 -174 -115 -115
-175 -262 -175 -426 0 -164 60 -311 175 -426 121 -122 259 -173 468 -174 l107
0 0 -300 0 -300 -1943 2 -1943 3 -76 38 c-126 62 -218 179 -247 315 -8 37 -11
379 -11 1139 0 1030 1 1085 18 1077 9 -5 304 -10 655 -12z m3847 -1363 l0
-300 -267 3 c-257 3 -270 4 -315 26 -105 52 -168 154 -168 271 0 136 80 248
205 287 27 9 120 13 293 13 l252 1 0 -301z"/>
<path d="M2410 4145 l0 -225 -225 0 -225 0 0 -150 0 -150 225 0 225 0 0 -225
0 -225 150 0 150 0 0 225 0 225 225 0 225 0 0 150 0 150 -225 0 -225 0 0 225
0 225 -150 0 -150 0 0 -225z"/>
<path d="M900 1210 l0 -450 605 0 605 0 0 450 0 450 -605 0 -605 0 0 -450z
m910 0 l0 -150 -305 0 -305 0 0 143 c0 79 3 147 7 150 3 4 141 7 305 7 l298 0
0 -150z"/>
</g>
</svg>
