<svg width="24" height="24" viewBox="0 0 24 24" fill="none" xmlns="http://www.w3.org/2000/svg">
<path d="M21.9098 14.2802C21.7688 14.1367 21.576 14.0558 21.3748 14.0558C21.1736 14.0558 20.9808 14.1367 20.8398 14.2802L17.4398 17.6902V8.69019C17.4398 8.27597 17.104 7.94019 16.6898 7.94019C16.2756 7.94019 15.9398 8.27597 15.9398 8.69019V17.6902L12.5298 14.2802C12.3404 14.089 12.0635 14.0134 11.8033 14.0819C11.5431 14.1503 11.3392 14.3523 11.2683 14.6119C11.1974 14.8714 11.2704 15.149 11.4598 15.3402L16.1598 20.0002C16.2272 20.0703 16.3091 20.1249 16.3998 20.1602C16.4913 20.2001 16.59 20.2205 16.6898 20.2202C16.7864 20.2206 16.8819 20.2001 16.9698 20.1602C17.0633 20.1248 17.1485 20.0703 17.2198 20.0002L21.9098 15.3102C22.1828 15.0211 22.1828 14.5692 21.9098 14.2802Z" fill="#0B1C3F"/>
<path d="M11.4699 9.72009C11.7662 10.0137 12.2437 10.0137 12.5399 9.72009C12.8324 9.42727 12.8324 8.9529 12.5399 8.66009L7.83995 4.00009C7.77251 3.92996 7.69061 3.87536 7.59995 3.84009C7.41639 3.7701 7.2135 3.7701 7.02995 3.84009C6.93757 3.87777 6.85285 3.93199 6.77995 4.00009L2.08995 8.66009C1.79749 8.9529 1.79749 9.42727 2.08995 9.72009C2.22923 9.86303 2.42036 9.94366 2.61995 9.94366C2.81953 9.94366 3.01066 9.86303 3.14995 9.72009L6.55995 6.31009V15.3101C6.55995 15.578 6.70289 15.8256 6.93495 15.9596C7.167 16.0936 7.45289 16.0936 7.68495 15.9596C7.917 15.8256 8.05995 15.578 8.05995 15.3101V6.31009L11.4699 9.72009Z" fill="#0B1C3F"/>
</svg>
